<mxfile host="Electron" agent="Mozilla/5.0 (Windows NT 10.0; Win64; x64) AppleWebKit/537.36 (KHTML, like Gecko) draw.io/27.0.9 Chrome/134.0.6998.205 Electron/35.4.0 Safari/537.36" version="27.0.9">
  <diagram name="Page-1" id="OFcu56uzazHhj4II78ZT">
    <mxGraphModel dx="1426" dy="875" grid="1" gridSize="10" guides="1" tooltips="1" connect="1" arrows="1" fold="1" page="1" pageScale="1" pageWidth="850" pageHeight="1100" math="0" shadow="0">
      <root>
        <mxCell id="0" />
        <mxCell id="1" parent="0" />
        <mxCell id="w5GqO7YRPjPRdxhruFkp-1" value="&lt;b&gt;&lt;i&gt;Start&lt;/i&gt;&lt;/b&gt;" style="ellipse;whiteSpace=wrap;html=1;shadow=1;" vertex="1" parent="1">
          <mxGeometry x="570" y="186" width="100" height="40" as="geometry" />
        </mxCell>
        <mxCell id="w5GqO7YRPjPRdxhruFkp-2" style="edgeStyle=orthogonalEdgeStyle;rounded=0;orthogonalLoop=1;jettySize=auto;html=1;exitX=0;exitY=0.5;exitDx=0;exitDy=0;entryX=1;entryY=0.5;entryDx=0;entryDy=0;shadow=1;" edge="1" parent="1" source="w5GqO7YRPjPRdxhruFkp-4" target="w5GqO7YRPjPRdxhruFkp-11">
          <mxGeometry relative="1" as="geometry" />
        </mxCell>
        <mxCell id="w5GqO7YRPjPRdxhruFkp-3" style="edgeStyle=orthogonalEdgeStyle;rounded=0;orthogonalLoop=1;jettySize=auto;html=1;exitX=1;exitY=0.5;exitDx=0;exitDy=0;entryX=0;entryY=0.5;entryDx=0;entryDy=0;shadow=1;" edge="1" parent="1" source="w5GqO7YRPjPRdxhruFkp-4" target="w5GqO7YRPjPRdxhruFkp-9">
          <mxGeometry relative="1" as="geometry" />
        </mxCell>
        <mxCell id="w5GqO7YRPjPRdxhruFkp-4" value="&lt;b&gt;&lt;i&gt;Template selection&lt;/i&gt;&lt;/b&gt;" style="rhombus;whiteSpace=wrap;html=1;shadow=1;" vertex="1" parent="1">
          <mxGeometry x="550" y="286" width="140" height="140" as="geometry" />
        </mxCell>
        <mxCell id="w5GqO7YRPjPRdxhruFkp-5" value="&lt;b&gt;&lt;font style=&quot;font-size: 14px;&quot;&gt;UML Diagram for publishing message with media and text&lt;/font&gt;&amp;nbsp;&lt;/b&gt;" style="text;html=1;align=center;verticalAlign=middle;resizable=0;points=[];autosize=1;strokeColor=none;fillColor=none;shadow=1;" vertex="1" parent="1">
          <mxGeometry x="435" y="116" width="410" height="30" as="geometry" />
        </mxCell>
        <mxCell id="w5GqO7YRPjPRdxhruFkp-6" value="" style="endArrow=classic;html=1;rounded=0;exitX=0.5;exitY=1;exitDx=0;exitDy=0;shadow=1;" edge="1" parent="1" source="w5GqO7YRPjPRdxhruFkp-1" target="w5GqO7YRPjPRdxhruFkp-4">
          <mxGeometry width="50" height="50" relative="1" as="geometry">
            <mxPoint x="730" y="326" as="sourcePoint" />
            <mxPoint x="780" y="276" as="targetPoint" />
          </mxGeometry>
        </mxCell>
        <mxCell id="w5GqO7YRPjPRdxhruFkp-7" style="edgeStyle=orthogonalEdgeStyle;rounded=0;orthogonalLoop=1;jettySize=auto;html=1;exitX=0.5;exitY=1;exitDx=0;exitDy=0;shadow=1;" edge="1" parent="1" source="w5GqO7YRPjPRdxhruFkp-4" target="w5GqO7YRPjPRdxhruFkp-4">
          <mxGeometry relative="1" as="geometry" />
        </mxCell>
        <mxCell id="w5GqO7YRPjPRdxhruFkp-8" style="edgeStyle=orthogonalEdgeStyle;rounded=0;orthogonalLoop=1;jettySize=auto;html=1;exitX=0.5;exitY=1;exitDx=0;exitDy=0;shadow=1;" edge="1" parent="1" source="w5GqO7YRPjPRdxhruFkp-9">
          <mxGeometry relative="1" as="geometry">
            <mxPoint x="885" y="456" as="targetPoint" />
          </mxGeometry>
        </mxCell>
        <mxCell id="w5GqO7YRPjPRdxhruFkp-9" value="&lt;b&gt;&lt;i&gt;Select template from existing template list&lt;/i&gt;&lt;/b&gt;" style="rounded=1;whiteSpace=wrap;html=1;shadow=1;glass=0;" vertex="1" parent="1">
          <mxGeometry x="820" y="321" width="130" height="70" as="geometry" />
        </mxCell>
        <mxCell id="w5GqO7YRPjPRdxhruFkp-10" style="edgeStyle=orthogonalEdgeStyle;rounded=0;orthogonalLoop=1;jettySize=auto;html=1;exitX=0.5;exitY=1;exitDx=0;exitDy=0;entryX=0;entryY=0.5;entryDx=0;entryDy=0;shadow=1;" edge="1" parent="1" source="w5GqO7YRPjPRdxhruFkp-11" target="w5GqO7YRPjPRdxhruFkp-32">
          <mxGeometry relative="1" as="geometry" />
        </mxCell>
        <mxCell id="w5GqO7YRPjPRdxhruFkp-11" value="&lt;b&gt;&lt;i&gt;Create New Template&lt;/i&gt;&lt;/b&gt;" style="rounded=1;whiteSpace=wrap;html=1;shadow=1;" vertex="1" parent="1">
          <mxGeometry x="280" y="326" width="135" height="60" as="geometry" />
        </mxCell>
        <mxCell id="w5GqO7YRPjPRdxhruFkp-12" style="edgeStyle=orthogonalEdgeStyle;rounded=0;orthogonalLoop=1;jettySize=auto;html=1;exitX=0.5;exitY=1;exitDx=0;exitDy=0;entryX=0.5;entryY=0;entryDx=0;entryDy=0;shadow=1;" edge="1" parent="1" source="w5GqO7YRPjPRdxhruFkp-13" target="w5GqO7YRPjPRdxhruFkp-30">
          <mxGeometry relative="1" as="geometry" />
        </mxCell>
        <mxCell id="w5GqO7YRPjPRdxhruFkp-13" value="&lt;b&gt;&lt;i&gt;Message&lt;/i&gt;&lt;/b&gt;" style="rounded=1;whiteSpace=wrap;html=1;shadow=1;" vertex="1" parent="1">
          <mxGeometry x="825" y="456" width="120" height="60" as="geometry" />
        </mxCell>
        <mxCell id="w5GqO7YRPjPRdxhruFkp-14" style="edgeStyle=orthogonalEdgeStyle;rounded=0;orthogonalLoop=1;jettySize=auto;html=1;exitX=0;exitY=0.5;exitDx=0;exitDy=0;entryX=1;entryY=0.5;entryDx=0;entryDy=0;shadow=1;" edge="1" parent="1" source="w5GqO7YRPjPRdxhruFkp-15" target="w5GqO7YRPjPRdxhruFkp-13">
          <mxGeometry relative="1" as="geometry" />
        </mxCell>
        <mxCell id="w5GqO7YRPjPRdxhruFkp-15" value="&lt;b&gt;&lt;i&gt;Header&lt;/i&gt;&lt;/b&gt;" style="rounded=1;whiteSpace=wrap;html=1;shadow=1;" vertex="1" parent="1">
          <mxGeometry x="1160" y="316" width="120" height="60" as="geometry" />
        </mxCell>
        <mxCell id="w5GqO7YRPjPRdxhruFkp-16" style="edgeStyle=orthogonalEdgeStyle;rounded=0;orthogonalLoop=1;jettySize=auto;html=1;exitX=0;exitY=0.5;exitDx=0;exitDy=0;entryX=1;entryY=0.5;entryDx=0;entryDy=0;shadow=1;" edge="1" parent="1" source="w5GqO7YRPjPRdxhruFkp-17" target="w5GqO7YRPjPRdxhruFkp-15">
          <mxGeometry relative="1" as="geometry" />
        </mxCell>
        <mxCell id="w5GqO7YRPjPRdxhruFkp-17" value="&lt;p style=&quot;margin:0px;margin-top:4px;text-align:center;&quot;&gt;&lt;b&gt;Header Type&lt;/b&gt;&lt;/p&gt;&lt;hr size=&quot;1&quot; style=&quot;border-style:solid;&quot;&gt;&lt;p style=&quot;margin:0px;margin-left:4px;&quot;&gt;+ Format: string = &quot;TEXT&quot;&lt;br&gt;+ Size: Int&lt;/p&gt;&lt;p style=&quot;margin:0px;margin-left:4px;&quot;&gt;&lt;br&gt;&lt;/p&gt;" style="verticalAlign=top;align=left;overflow=fill;html=1;whiteSpace=wrap;shadow=1;" vertex="1" parent="1">
          <mxGeometry x="1381" y="311" width="190" height="70" as="geometry" />
        </mxCell>
        <mxCell id="w5GqO7YRPjPRdxhruFkp-18" style="edgeStyle=orthogonalEdgeStyle;rounded=0;orthogonalLoop=1;jettySize=auto;html=1;exitX=0;exitY=0.5;exitDx=0;exitDy=0;entryX=1;entryY=0.5;entryDx=0;entryDy=0;shadow=1;" edge="1" parent="1" source="w5GqO7YRPjPRdxhruFkp-19" target="w5GqO7YRPjPRdxhruFkp-17">
          <mxGeometry relative="1" as="geometry" />
        </mxCell>
        <mxCell id="w5GqO7YRPjPRdxhruFkp-19" value="&lt;p style=&quot;margin:0px;margin-top:4px;text-align:center;&quot;&gt;&lt;b&gt;Text&lt;/b&gt;&lt;/p&gt;&lt;hr size=&quot;1&quot; style=&quot;border-style:solid;&quot;&gt;&lt;p style=&quot;margin:0px;margin-left:4px;&quot;&gt;+ Format: string&lt;br&gt;+ Size: Int&lt;/p&gt;&lt;p style=&quot;margin:0px;margin-left:4px;&quot;&gt;&lt;br&gt;&lt;/p&gt;" style="verticalAlign=top;align=left;overflow=fill;html=1;whiteSpace=wrap;shadow=1;" vertex="1" parent="1">
          <mxGeometry x="1691" y="245" width="190" height="70" as="geometry" />
        </mxCell>
        <mxCell id="w5GqO7YRPjPRdxhruFkp-20" style="edgeStyle=orthogonalEdgeStyle;rounded=0;orthogonalLoop=1;jettySize=auto;html=1;exitX=0;exitY=0.5;exitDx=0;exitDy=0;entryX=1;entryY=0.5;entryDx=0;entryDy=0;shadow=1;" edge="1" parent="1" source="w5GqO7YRPjPRdxhruFkp-21" target="w5GqO7YRPjPRdxhruFkp-17">
          <mxGeometry relative="1" as="geometry" />
        </mxCell>
        <mxCell id="w5GqO7YRPjPRdxhruFkp-21" value="&lt;p style=&quot;margin:0px;margin-top:4px;text-align:center;&quot;&gt;&lt;b&gt;Media&lt;/b&gt;&lt;/p&gt;&lt;hr size=&quot;1&quot; style=&quot;border-style:solid;&quot;&gt;&lt;p style=&quot;margin:0px;margin-left:4px;&quot;&gt;+&amp;nbsp; Format: binary_code&lt;br&gt;+&amp;nbsp; Size_in_bytes: float&lt;/p&gt;&lt;p style=&quot;margin:0px;margin-left:4px;&quot;&gt;&lt;br&gt;&lt;/p&gt;" style="verticalAlign=top;align=left;overflow=fill;html=1;whiteSpace=wrap;shadow=1;" vertex="1" parent="1">
          <mxGeometry x="1691" y="373" width="190" height="70" as="geometry" />
        </mxCell>
        <mxCell id="w5GqO7YRPjPRdxhruFkp-22" value="&lt;b&gt;&lt;i&gt;Option 2&lt;/i&gt;&lt;/b&gt;" style="text;html=1;align=center;verticalAlign=middle;resizable=0;points=[];autosize=1;strokeColor=none;fillColor=none;shadow=1;" vertex="1" parent="1">
          <mxGeometry x="705" y="324" width="70" height="30" as="geometry" />
        </mxCell>
        <mxCell id="w5GqO7YRPjPRdxhruFkp-23" value="&lt;b&gt;&lt;i&gt;Option 1&lt;/i&gt;&lt;/b&gt;" style="text;html=1;align=center;verticalAlign=middle;resizable=0;points=[];autosize=1;strokeColor=none;fillColor=none;shadow=1;" vertex="1" parent="1">
          <mxGeometry x="475" y="324" width="70" height="30" as="geometry" />
        </mxCell>
        <mxCell id="w5GqO7YRPjPRdxhruFkp-24" style="edgeStyle=orthogonalEdgeStyle;rounded=0;orthogonalLoop=1;jettySize=auto;html=1;exitX=0;exitY=0.5;exitDx=0;exitDy=0;entryX=1;entryY=0.5;entryDx=0;entryDy=0;shadow=1;" edge="1" parent="1" source="w5GqO7YRPjPRdxhruFkp-25" target="w5GqO7YRPjPRdxhruFkp-27">
          <mxGeometry relative="1" as="geometry" />
        </mxCell>
        <mxCell id="w5GqO7YRPjPRdxhruFkp-25" value="&lt;p style=&quot;margin:0px;margin-top:4px;text-align:center;&quot;&gt;&lt;b&gt;Body Type&lt;/b&gt;&lt;/p&gt;&lt;hr size=&quot;1&quot; style=&quot;border-style:solid;&quot;&gt;&lt;p style=&quot;margin:0px;margin-left:4px;&quot;&gt;+ Format: string = &quot;TEXT&quot;&lt;br&gt;+ Size: Int&lt;/p&gt;&lt;p style=&quot;margin:0px;margin-left:4px;&quot;&gt;&lt;br&gt;&lt;/p&gt;" style="verticalAlign=top;align=left;overflow=fill;html=1;whiteSpace=wrap;shadow=1;" vertex="1" parent="1">
          <mxGeometry x="1381" y="451" width="190" height="70" as="geometry" />
        </mxCell>
        <mxCell id="w5GqO7YRPjPRdxhruFkp-26" style="edgeStyle=orthogonalEdgeStyle;rounded=0;orthogonalLoop=1;jettySize=auto;html=1;exitX=0;exitY=0.5;exitDx=0;exitDy=0;entryX=1;entryY=0.5;entryDx=0;entryDy=0;shadow=1;" edge="1" parent="1" source="w5GqO7YRPjPRdxhruFkp-27" target="w5GqO7YRPjPRdxhruFkp-13">
          <mxGeometry relative="1" as="geometry" />
        </mxCell>
        <mxCell id="w5GqO7YRPjPRdxhruFkp-27" value="&lt;b&gt;&lt;i&gt;Body&lt;/i&gt;&lt;/b&gt;" style="rounded=1;whiteSpace=wrap;html=1;shadow=1;" vertex="1" parent="1">
          <mxGeometry x="1160" y="456" width="120" height="60" as="geometry" />
        </mxCell>
        <mxCell id="w5GqO7YRPjPRdxhruFkp-28" value="&lt;b&gt;&lt;i&gt;Stop&lt;/i&gt;&lt;/b&gt;" style="ellipse;whiteSpace=wrap;html=1;aspect=fixed;shadow=1;" vertex="1" parent="1">
          <mxGeometry x="590" y="960" width="60" height="60" as="geometry" />
        </mxCell>
        <mxCell id="w5GqO7YRPjPRdxhruFkp-40" style="edgeStyle=orthogonalEdgeStyle;rounded=0;orthogonalLoop=1;jettySize=auto;html=1;exitX=0.5;exitY=1;exitDx=0;exitDy=0;entryX=0.5;entryY=0;entryDx=0;entryDy=0;shadow=1;" edge="1" parent="1" source="w5GqO7YRPjPRdxhruFkp-30" target="w5GqO7YRPjPRdxhruFkp-37">
          <mxGeometry relative="1" as="geometry" />
        </mxCell>
        <mxCell id="w5GqO7YRPjPRdxhruFkp-30" value="&lt;b&gt;&lt;i&gt;Preview Message&lt;/i&gt;&lt;/b&gt;" style="rounded=1;whiteSpace=wrap;html=1;shadow=1;" vertex="1" parent="1">
          <mxGeometry x="825" y="586" width="120" height="60" as="geometry" />
        </mxCell>
        <mxCell id="w5GqO7YRPjPRdxhruFkp-31" style="edgeStyle=orthogonalEdgeStyle;rounded=0;orthogonalLoop=1;jettySize=auto;html=1;exitX=0.5;exitY=1;exitDx=0;exitDy=0;entryX=0.5;entryY=0;entryDx=0;entryDy=0;shadow=1;" edge="1" parent="1" source="w5GqO7YRPjPRdxhruFkp-32" target="w5GqO7YRPjPRdxhruFkp-28">
          <mxGeometry relative="1" as="geometry" />
        </mxCell>
        <mxCell id="w5GqO7YRPjPRdxhruFkp-32" value="&lt;b&gt;&lt;i&gt;send message to user&lt;/i&gt;&lt;/b&gt;" style="rounded=1;whiteSpace=wrap;html=1;shadow=1;" vertex="1" parent="1">
          <mxGeometry x="560" y="840" width="120" height="60" as="geometry" />
        </mxCell>
        <mxCell id="w5GqO7YRPjPRdxhruFkp-33" style="edgeStyle=orthogonalEdgeStyle;rounded=0;orthogonalLoop=1;jettySize=auto;html=1;exitX=0;exitY=0.5;exitDx=0;exitDy=0;entryX=1;entryY=0.5;entryDx=0;entryDy=0;shadow=1;" edge="1" parent="1" source="w5GqO7YRPjPRdxhruFkp-34" target="w5GqO7YRPjPRdxhruFkp-13">
          <mxGeometry relative="1" as="geometry" />
        </mxCell>
        <mxCell id="w5GqO7YRPjPRdxhruFkp-34" value="&lt;b&gt;&lt;i&gt;Footer&lt;br&gt;(optional)&lt;/i&gt;&lt;/b&gt;" style="rounded=1;whiteSpace=wrap;html=1;shadow=1;" vertex="1" parent="1">
          <mxGeometry x="1160" y="596" width="120" height="60" as="geometry" />
        </mxCell>
        <mxCell id="w5GqO7YRPjPRdxhruFkp-35" style="edgeStyle=orthogonalEdgeStyle;rounded=0;orthogonalLoop=1;jettySize=auto;html=1;exitX=0;exitY=0.5;exitDx=0;exitDy=0;entryX=1;entryY=0.5;entryDx=0;entryDy=0;shadow=1;" edge="1" parent="1" source="w5GqO7YRPjPRdxhruFkp-36" target="w5GqO7YRPjPRdxhruFkp-34">
          <mxGeometry relative="1" as="geometry" />
        </mxCell>
        <mxCell id="w5GqO7YRPjPRdxhruFkp-36" value="&lt;p style=&quot;margin:0px;margin-top:4px;text-align:center;&quot;&gt;&lt;b&gt;Footer Type&lt;/b&gt;&lt;/p&gt;&lt;hr size=&quot;1&quot; style=&quot;border-style:solid;&quot;&gt;&lt;p style=&quot;margin:0px;margin-left:4px;&quot;&gt;+ Format: string = &quot;TEXT&quot;&lt;br&gt;+ Size: Int&lt;/p&gt;&lt;p style=&quot;margin:0px;margin-left:4px;&quot;&gt;&lt;br&gt;&lt;/p&gt;" style="verticalAlign=top;align=left;overflow=fill;html=1;whiteSpace=wrap;shadow=1;" vertex="1" parent="1">
          <mxGeometry x="1381" y="591" width="190" height="70" as="geometry" />
        </mxCell>
        <mxCell id="w5GqO7YRPjPRdxhruFkp-38" style="edgeStyle=orthogonalEdgeStyle;rounded=0;orthogonalLoop=1;jettySize=auto;html=1;exitX=0;exitY=0.5;exitDx=0;exitDy=0;entryX=0;entryY=0.5;entryDx=0;entryDy=0;shadow=1;" edge="1" parent="1" source="w5GqO7YRPjPRdxhruFkp-37" target="w5GqO7YRPjPRdxhruFkp-13">
          <mxGeometry relative="1" as="geometry">
            <Array as="points">
              <mxPoint x="740" y="760" />
              <mxPoint x="740" y="486" />
            </Array>
          </mxGeometry>
        </mxCell>
        <mxCell id="w5GqO7YRPjPRdxhruFkp-41" style="edgeStyle=orthogonalEdgeStyle;rounded=0;orthogonalLoop=1;jettySize=auto;html=1;exitX=0.5;exitY=1;exitDx=0;exitDy=0;entryX=1;entryY=0.5;entryDx=0;entryDy=0;shadow=1;" edge="1" parent="1" source="w5GqO7YRPjPRdxhruFkp-37" target="w5GqO7YRPjPRdxhruFkp-32">
          <mxGeometry relative="1" as="geometry" />
        </mxCell>
        <mxCell id="w5GqO7YRPjPRdxhruFkp-37" value="&lt;b&gt;&lt;i&gt;Confirmation&lt;/i&gt;&lt;/b&gt;" style="rhombus;whiteSpace=wrap;html=1;shadow=1;" vertex="1" parent="1">
          <mxGeometry x="835" y="710" width="100" height="100" as="geometry" />
        </mxCell>
        <mxCell id="w5GqO7YRPjPRdxhruFkp-39" value="&lt;b&gt;&lt;i&gt;NO&lt;/i&gt;&lt;/b&gt;" style="text;html=1;align=center;verticalAlign=middle;resizable=0;points=[];autosize=1;strokeColor=none;fillColor=none;shadow=1;" vertex="1" parent="1">
          <mxGeometry x="780" y="708" width="40" height="30" as="geometry" />
        </mxCell>
        <mxCell id="w5GqO7YRPjPRdxhruFkp-42" value="&lt;b&gt;&lt;i&gt;YES&lt;/i&gt;&lt;/b&gt;" style="text;html=1;align=center;verticalAlign=middle;resizable=0;points=[];autosize=1;strokeColor=none;fillColor=none;shadow=1;" vertex="1" parent="1">
          <mxGeometry x="835" y="808" width="50" height="30" as="geometry" />
        </mxCell>
      </root>
    </mxGraphModel>
  </diagram>
</mxfile>
